<svg  xmlns="http://www.w3.org/2000/svg" xmlns:xlink="http://www.w3.org/1999/xlink" width="512px" height="512px">
<path  d="M503.467,68.267 L34.134,68.267 L34.134,455.390 C40.423,448.179 49.596,443.733 59.734,443.733 C72.380,443.733 83.602,450.577 89.481,461.184 C90.923,460.928 92.391,460.800 93.867,460.800 C107.981,460.800 119.467,472.286 119.467,486.400 C119.467,500.514 107.981,512.000 93.867,512.000 L25.600,512.000 C11.486,512.000 0.000,500.514 0.000,486.400 C0.000,475.290 7.159,465.911 17.067,462.370 L17.067,59.733 C17.067,55.023 20.881,51.200 25.600,51.200 L494.932,51.200 L494.932,34.133 L418.132,34.133 C413.413,34.133 409.599,30.310 409.599,25.600 C404.880,25.600 401.066,21.777 401.066,17.067 L392.533,17.067 L392.533,25.600 C392.533,30.310 388.719,34.133 384.000,34.133 L349.865,34.133 C345.146,34.133 341.332,30.310 341.332,25.600 L341.332,17.067 L324.274,17.067 L324.274,25.600 C324.274,30.310 320.460,34.133 315.741,34.133 L127.999,34.133 C123.280,34.133 119.466,30.310 119.466,25.600 L119.466,17.067 L102.399,17.067 L102.399,25.600 C102.399,30.310 98.585,34.133 93.866,34.133 L8.533,34.133 C3.814,34.133 0.000,30.310 0.000,25.600 C0.000,20.890 3.814,17.067 8.534,17.066 L85.334,17.066 L85.334,8.533 C85.334,3.823 89.148,0.000 93.867,0.000 L128.000,0.000 C132.719,0.000 136.533,3.823 136.533,8.533 L136.533,17.066 L307.209,17.066 L307.209,8.533 C307.209,3.823 311.023,0.000 315.742,0.000 L349.867,0.000 C354.586,0.000 358.400,3.823 358.400,8.533 L358.400,17.067 L375.467,17.067 L375.467,8.534 C375.467,3.824 379.281,0.001 384.000,0.001 L418.134,0.001 C422.853,0.001 426.667,3.824 426.667,8.534 C431.386,8.534 435.200,12.357 435.200,17.067 L503.467,17.067 C508.186,17.067 512.000,20.890 512.000,25.600 L512.000,59.734 C512.000,64.444 508.186,68.267 503.467,68.267 ZM25.600,477.867 C20.890,477.867 17.067,481.698 17.067,486.400 C17.067,491.102 20.890,494.933 25.600,494.933 L93.868,494.933 C98.578,494.933 102.401,491.102 102.401,486.400 C102.401,480.069 94.815,475.674 89.243,479.258 C86.913,480.768 83.986,481.033 81.409,479.992 C78.831,478.951 76.937,476.715 76.297,474.010 C74.497,466.236 67.695,460.800 59.734,460.800 C51.773,460.800 44.971,466.236 43.171,474.010 C42.530,476.715 40.636,478.951 38.059,479.992 C35.482,481.033 32.555,480.768 30.225,479.258 C28.791,478.336 27.230,477.867 25.600,477.867 ZM93.867,102.400 L145.067,102.400 C149.786,102.400 153.600,106.223 153.600,110.933 L153.600,179.200 C153.600,183.910 149.786,187.733 145.067,187.733 L93.867,187.733 C89.148,187.733 85.333,183.910 85.334,179.200 L85.334,110.933 C85.334,106.223 89.148,102.400 93.867,102.400 ZM102.400,170.667 L136.533,170.667 L136.533,153.600 L102.400,153.600 L102.400,170.667 ZM102.400,136.534 L136.533,136.534 L136.533,119.467 L102.400,119.467 L102.400,136.534 ZM93.866,341.333 L145.066,341.333 C149.785,341.333 153.599,345.156 153.599,349.866 L153.599,418.133 C153.599,422.843 149.785,426.666 145.066,426.666 L93.866,426.666 C89.147,426.666 85.333,422.843 85.333,418.133 L85.333,349.866 C85.333,345.156 89.147,341.333 93.866,341.333 ZM102.400,409.600 L136.533,409.600 L136.533,392.533 L102.400,392.533 L102.400,409.600 ZM102.400,375.467 L136.533,375.467 L136.533,358.400 L102.400,358.400 L102.400,375.467 ZM85.333,230.400 C85.333,225.690 89.147,221.867 93.866,221.867 L145.066,221.867 C149.785,221.867 153.599,225.690 153.599,230.400 L153.599,298.667 C153.599,303.377 149.785,307.200 145.066,307.200 L93.866,307.200 C89.147,307.200 85.333,303.377 85.333,298.667 L85.333,230.400 ZM102.400,290.134 L136.533,290.134 L136.533,273.067 L102.400,273.067 L102.400,290.134 ZM102.400,256.000 L136.533,256.000 L136.533,238.933 L102.400,238.933 L102.400,256.000 ZM281.600,187.733 L230.400,187.733 C225.681,187.733 221.867,183.910 221.867,179.200 L221.867,110.933 C221.867,106.223 225.681,102.400 230.400,102.400 L281.600,102.400 C286.319,102.400 290.133,106.223 290.133,110.933 L290.133,179.200 C290.133,183.910 286.319,187.733 281.600,187.733 ZM273.066,119.467 L238.933,119.467 L238.933,136.534 L273.066,136.534 L273.066,119.467 ZM273.066,153.600 L238.933,153.600 L238.933,170.667 L273.066,170.667 L273.066,153.600 ZM290.133,298.667 C290.133,303.377 286.319,307.200 281.600,307.200 L230.400,307.200 C225.681,307.200 221.867,303.377 221.867,298.667 L221.867,230.400 C221.867,225.690 225.681,221.867 230.400,221.867 L281.600,221.867 C286.319,221.867 290.133,225.690 290.133,230.400 L290.133,298.667 ZM273.066,238.933 L238.933,238.933 L238.933,256.000 L273.066,256.000 L273.066,238.933 ZM273.066,273.067 L238.933,273.067 L238.933,290.134 L273.066,290.134 L273.066,273.067 ZM145.068,494.933 L187.735,494.933 L187.735,469.333 C187.735,464.623 191.549,460.800 196.268,460.800 L221.868,460.800 L221.868,349.867 C221.868,345.157 225.682,341.334 230.401,341.334 L281.601,341.334 C286.320,341.334 290.134,345.157 290.134,349.867 L290.134,460.800 L315.734,460.800 C320.453,460.800 324.267,464.623 324.267,469.333 C324.267,474.044 320.452,477.867 315.734,477.866 L204.801,477.866 L204.801,503.466 C204.801,508.176 200.987,511.999 196.268,511.999 L145.068,511.999 C140.349,511.999 136.535,508.176 136.535,503.466 C136.535,498.756 140.349,494.933 145.068,494.933 ZM238.934,460.800 L273.067,460.800 L273.067,418.133 L264.534,418.133 C259.815,418.133 256.001,414.310 256.001,409.600 C256.001,404.890 259.815,401.067 264.534,401.067 L273.067,401.067 L273.067,358.400 L238.934,358.400 L238.934,460.800 ZM230.400,494.933 L366.933,494.933 C371.652,494.933 375.467,498.756 375.466,503.466 C375.466,508.176 371.652,511.999 366.933,511.999 L230.400,511.999 C225.681,511.999 221.867,508.176 221.867,503.466 C221.867,498.756 225.681,494.933 230.400,494.933 ZM426.666,418.133 C426.666,422.843 422.852,426.666 418.133,426.666 L366.933,426.666 C362.214,426.666 358.400,422.843 358.400,418.133 L358.400,349.866 C358.400,345.156 362.214,341.333 366.933,341.333 L418.133,341.333 C422.852,341.333 426.666,345.156 426.666,349.866 L426.666,418.133 ZM409.600,358.400 L375.467,358.400 L375.467,375.467 L409.600,375.467 L409.600,358.400 ZM409.600,392.533 L375.467,392.533 L375.467,409.600 L409.600,409.600 L409.600,392.533 ZM418.133,187.733 L366.933,187.733 C362.214,187.733 358.400,183.910 358.400,179.200 L358.400,110.933 C358.400,106.223 362.214,102.400 366.933,102.400 L418.133,102.400 C422.852,102.400 426.666,106.223 426.666,110.933 L426.666,179.200 C426.666,183.910 422.852,187.733 418.133,187.733 ZM409.600,119.467 L375.467,119.467 L375.467,136.534 L409.600,136.534 L409.600,119.467 ZM409.600,153.600 L375.467,153.600 L375.467,170.667 L409.600,170.667 L409.600,153.600 ZM426.666,298.667 C426.666,303.377 422.852,307.200 418.133,307.200 L366.933,307.200 C362.214,307.200 358.400,303.377 358.400,298.667 L358.400,230.400 C358.400,225.690 362.214,221.867 366.933,221.867 L418.133,221.867 C422.852,221.867 426.666,225.690 426.666,230.400 L426.666,298.667 ZM409.600,238.933 L375.467,238.933 L375.467,256.000 L409.600,256.000 L409.600,238.933 ZM409.600,273.067 L375.467,273.067 L375.467,290.134 L409.600,290.134 L409.600,273.067 ZM418.134,460.800 C419.610,460.800 421.078,460.928 422.520,461.184 C428.399,450.577 439.621,443.733 452.267,443.733 C462.405,443.733 471.578,448.179 477.867,455.390 L477.867,93.867 C477.867,89.157 481.681,85.334 486.400,85.334 C491.119,85.334 494.933,89.157 494.933,93.867 L494.933,462.370 C504.841,465.911 512.000,475.290 512.000,486.400 C512.000,500.514 500.514,512.000 486.400,512.000 L418.134,512.000 C404.020,512.000 392.534,500.514 392.534,486.400 C392.534,472.286 404.020,460.800 418.134,460.800 ZM418.133,494.933 L486.400,494.933 C491.110,494.933 494.933,491.102 494.932,486.400 C494.932,480.069 487.329,475.674 481.774,479.258 C479.435,480.768 476.517,481.033 473.940,479.992 C471.363,478.951 469.469,476.715 468.829,474.010 C467.029,466.236 460.228,460.800 452.266,460.800 C444.305,460.800 437.504,466.236 435.703,474.010 C435.063,476.715 433.169,478.951 430.592,479.992 C428.015,481.033 425.088,480.768 422.758,479.258 C421.324,478.336 419.763,477.867 418.133,477.867 C413.423,477.867 409.600,481.698 409.600,486.400 C409.600,491.102 413.423,494.933 418.133,494.933 Z"/>
</svg>