<svg width="60" height="60" version="1.1" viewBox="0 0 60 60" xmlns="http://www.w3.org/2000/svg">
 <path d="m0 30c0-16.568 13.432-30 30-30s30 13.432 30 30-13.432 30-30 30-30-13.432-30-30z" clip-rule="evenodd" fill="#F7BF00" fill-rule="evenodd"/>
 <g fill="#fff">
  <path d="m19.297 47.21c2.24 0 3.626-1.4 3.626-3.276 0-1.96-1.568-3.066-2.996-3.066-0.686 0-1.33 0.196-1.806 0.602 0.224-0.518 0.644-0.84 1.89-1.33 1.428-0.56 2.24-1.05 2.534-2.17l-1.904-1.092c-0.364 0.868-0.938 1.12-2.576 1.918-1.974 0.966-2.59 2.24-2.59 4.536s1.484 3.878 3.822 3.878zm-0.028-2.016c-0.756 0-1.358-0.532-1.358-1.288 0-0.784 0.658-1.218 1.316-1.218 0.784 0 1.358 0.532 1.358 1.26 0 0.714-0.546 1.246-1.316 1.246zm10.954-5.194h-6.048v3.766c0 0.896-0.336 1.274-1.008 1.078v2.156c2.268 0.252 3.332-0.714 3.332-2.898v-1.876h1.4v4.774h2.324v-7zm4.7257 7.196c2.086 0 3.738-1.61 3.738-3.696s-1.652-3.696-3.738-3.696c-2.072 0-3.738 1.61-3.738 3.696s1.68 3.696 3.738 3.696zm0-2.24c-0.798 0-1.4-0.588-1.4-1.456s0.602-1.456 1.4-1.456c0.812 0 1.414 0.588 1.414 1.456s-0.602 1.456-1.414 1.456zm9.7861-4.956h-5.026v7h2.324v-4.774h2.702v-2.226z"/>
  <path d="m23.347 31.811h4.5706l-8.4838-22.102-8.5151 22.102h4.5706l0.65742-1.7844h6.5428zm-3.9132-10.393 2.0975 5.5411h-4.2262z"/>
  <path d="m44.379 25.988c-1.2522 1.2522-2.974 2.0349-4.8837 2.0349-3.8506 0-6.9498-3.0992-6.9498-6.9185 0-3.8506 3.0992-6.9498 6.9498-6.9498 1.9096 0 3.6314 0.78264 4.8837 2.0349l3.0053-3.0053c-2.0349-2.0036-4.821-3.2558-7.889-3.2558-6.1672 0-11.176 5.0089-11.176 11.176 0 6.1672 5.0089 11.145 11.176 11.145 3.0679 0 5.8541-1.2522 7.889-3.2558z"/>
 </g>
 <path d="m10.966 35.191h35.955" fill="none" stroke="#fff" stroke-width="1.5"/>
</svg>
