<svg  xmlns="http://www.w3.org/2000/svg" xmlns:xlink="http://www.w3.org/1999/xlink" width="512px" height="512px">
<path d="M486.400,442.521 L486.400,494.933 L503.467,494.933 C508.177,494.933 511.999,498.757 511.999,503.467 C511.999,508.177 508.176,512.000 503.466,512.000 L8.533,512.000 C3.823,512.000 0.000,508.176 0.000,503.466 C0.000,498.756 3.823,494.933 8.533,494.933 L34.133,494.933 L34.133,408.738 C14.686,404.770 0.000,387.541 0.000,366.933 C0.000,343.407 19.140,324.267 42.666,324.266 C66.193,324.266 85.333,343.407 85.333,366.933 C85.333,387.541 70.647,404.770 51.200,408.738 L51.200,494.933 L238.932,494.933 L238.932,459.938 C219.485,455.970 204.799,438.741 204.799,418.133 C204.799,394.606 223.940,375.466 247.466,375.466 C270.993,375.466 290.133,394.607 290.133,418.133 C290.133,438.741 275.447,455.970 256.000,459.938 L256.000,494.933 L469.334,494.933 L469.334,442.521 C454.657,438.706 443.734,425.454 443.734,409.599 C443.734,390.775 459.043,375.466 477.867,375.466 C496.691,375.466 512.000,390.774 512.000,409.599 C512.000,425.454 501.077,438.707 486.400,442.521 ZM68.267,366.933 C68.267,352.819 56.781,341.333 42.667,341.333 C28.553,341.333 17.067,352.819 17.067,366.933 C17.067,381.047 28.553,392.533 42.667,392.533 C56.781,392.533 68.267,381.047 68.267,366.933 ZM273.067,418.133 C273.067,404.019 261.581,392.533 247.467,392.533 C233.353,392.533 221.867,404.019 221.867,418.133 C221.867,432.247 233.353,443.733 247.467,443.733 C261.581,443.733 273.067,432.247 273.067,418.133 ZM477.867,392.533 C468.454,392.533 460.800,400.188 460.800,409.600 C460.800,419.012 468.454,426.667 477.867,426.667 C487.280,426.667 494.934,419.012 494.934,409.600 C494.934,400.187 487.280,392.533 477.867,392.533 ZM452.267,324.267 C456.977,324.267 460.800,328.090 460.800,332.800 L460.800,349.867 C460.800,354.577 456.977,358.400 452.267,358.400 C447.557,358.400 443.734,354.577 443.734,349.867 L443.734,332.800 C443.734,328.090 447.557,324.267 452.267,324.267 ZM443.734,281.600 C443.734,276.890 447.557,273.067 452.267,273.067 C456.977,273.067 460.800,276.890 460.800,281.600 L460.800,298.667 C460.800,303.377 456.977,307.200 452.267,307.200 C447.557,307.200 443.734,303.377 443.734,298.667 L443.734,281.600 ZM418.134,307.200 C413.424,307.200 409.601,303.377 409.601,298.667 L409.601,281.600 C409.601,276.890 413.424,273.067 418.134,273.067 C422.844,273.067 426.667,276.890 426.667,281.600 L426.667,298.667 C426.667,303.377 422.844,307.200 418.134,307.200 ZM426.667,349.867 C426.667,354.577 422.844,358.400 418.134,358.400 C413.424,358.400 409.601,354.577 409.601,349.867 L409.601,332.800 C409.601,328.090 413.424,324.267 418.134,324.267 C422.844,324.267 426.667,328.090 426.667,332.800 L426.667,349.867 ZM418.133,426.667 C422.844,426.667 426.667,430.490 426.666,435.200 L426.666,469.333 C426.666,474.043 422.843,477.866 418.133,477.866 C413.423,477.866 409.600,474.043 409.600,469.333 L409.600,435.200 C409.600,430.490 413.423,426.667 418.133,426.667 ZM409.600,384.000 C409.600,379.290 413.424,375.467 418.134,375.467 C422.844,375.467 426.667,379.290 426.667,384.000 L426.666,384.000 L426.666,401.067 C426.666,405.777 422.843,409.600 418.133,409.600 C413.423,409.600 409.600,405.777 409.600,401.067 L409.600,384.000 ZM486.400,358.400 C481.690,358.400 477.867,354.577 477.867,349.867 L477.867,261.914 L415.138,238.396 C411.810,237.141 409.600,233.958 409.600,230.400 L409.600,87.731 L324.266,109.065 L324.266,145.067 C324.266,149.777 320.443,153.600 315.733,153.600 C311.023,153.600 307.200,149.777 307.200,145.066 L307.200,102.399 C307.200,98.483 309.863,95.069 313.660,94.122 L409.600,70.135 L409.600,59.733 C409.600,55.023 413.423,51.200 418.133,51.200 C422.843,51.200 426.666,55.023 426.666,59.733 L426.666,224.486 L489.395,248.004 C492.723,249.259 494.933,252.442 494.933,256.000 L494.933,349.867 C494.933,354.577 491.110,358.400 486.400,358.400 ZM341.334,145.067 L341.334,128.000 C341.334,123.290 345.157,119.467 349.867,119.467 C354.577,119.467 358.400,123.290 358.400,128.000 L358.400,145.067 C358.400,149.777 354.577,153.600 349.867,153.600 C345.157,153.600 341.334,149.777 341.334,145.067 ZM375.467,145.067 L375.467,128.000 C375.467,123.290 379.290,119.467 384.000,119.467 C388.710,119.467 392.533,123.290 392.533,128.000 L392.533,145.067 C392.533,149.777 388.710,153.600 384.000,153.600 C379.290,153.600 375.467,149.777 375.467,145.067 ZM341.334,230.400 C341.334,225.690 345.157,221.867 349.867,221.867 C354.577,221.867 358.400,225.690 358.400,230.400 L358.400,247.467 C358.400,252.177 354.577,256.000 349.867,256.000 C345.157,256.000 341.334,252.177 341.334,247.467 L341.334,230.400 ZM341.334,281.600 C341.334,276.890 345.157,273.067 349.867,273.067 C354.577,273.067 358.400,276.890 358.400,281.600 L358.400,298.667 C358.400,303.377 354.577,307.200 349.867,307.200 C345.157,307.200 341.334,303.377 341.334,298.667 L341.334,281.600 ZM341.334,332.800 C341.334,328.090 345.157,324.267 349.867,324.267 C354.577,324.267 358.400,328.090 358.400,332.800 L358.400,349.867 C358.400,354.577 354.577,358.400 349.867,358.400 C345.157,358.400 341.334,354.577 341.334,349.867 L341.334,332.800 ZM349.867,426.667 C354.577,426.667 358.400,430.490 358.400,435.200 L358.400,469.333 C358.400,474.043 354.577,477.866 349.867,477.866 C345.157,477.866 341.334,474.043 341.334,469.333 L341.334,435.200 C341.334,430.490 345.157,426.667 349.867,426.667 ZM341.334,384.000 C341.334,379.290 345.157,375.467 349.867,375.467 C354.577,375.467 358.400,379.290 358.400,384.000 L358.400,401.067 C358.400,405.777 354.577,409.600 349.867,409.600 C345.157,409.600 341.334,405.777 341.334,401.067 L341.334,384.000 ZM324.267,349.867 C324.267,354.577 320.444,358.400 315.734,358.400 C311.024,358.400 307.201,354.577 307.201,349.867 L307.201,332.800 C307.201,328.090 311.024,324.267 315.734,324.267 C320.444,324.267 324.267,328.090 324.267,332.800 L324.267,349.867 ZM315.734,256.000 C311.024,256.000 307.201,252.177 307.201,247.467 L307.201,230.400 C307.201,225.690 311.024,221.867 315.734,221.867 C320.444,221.867 324.267,225.690 324.267,230.400 L324.267,247.467 C324.267,252.177 320.444,256.000 315.734,256.000 ZM324.267,298.667 C324.267,303.377 320.444,307.200 315.734,307.200 C311.024,307.200 307.201,303.377 307.201,298.667 L307.201,281.600 C307.201,276.890 311.024,273.067 315.734,273.067 C320.444,273.067 324.267,276.890 324.267,281.600 L324.267,298.667 ZM315.733,426.667 C320.444,426.667 324.267,430.490 324.266,435.200 L324.266,469.333 C324.266,474.043 320.443,477.866 315.733,477.866 C311.023,477.866 307.200,474.043 307.200,469.333 L307.200,435.200 C307.200,430.490 311.023,426.667 315.733,426.667 ZM307.200,384.000 C307.200,379.290 311.024,375.467 315.734,375.467 C320.444,375.467 324.267,379.290 324.267,384.000 L324.266,384.000 L324.266,401.067 C324.266,405.777 320.443,409.600 315.733,409.600 C311.023,409.600 307.200,405.777 307.200,401.067 L307.200,384.000 ZM273.067,230.400 C273.067,225.690 276.890,221.867 281.600,221.867 C286.310,221.867 290.133,225.690 290.133,230.400 L290.133,247.467 C290.133,252.177 286.310,256.000 281.600,256.000 C276.890,256.000 273.067,252.177 273.067,247.467 L273.067,230.400 ZM281.600,324.267 C286.310,324.267 290.133,328.090 290.133,332.800 L290.133,349.867 C290.133,354.577 286.310,358.400 281.600,358.400 C276.890,358.400 273.067,354.577 273.067,349.867 L273.067,332.800 C273.067,328.090 276.890,324.267 281.600,324.267 ZM273.067,281.600 C273.067,276.890 276.890,273.067 281.600,273.067 C286.310,273.067 290.133,276.890 290.133,281.600 L290.133,298.667 C290.133,303.377 286.310,307.200 281.600,307.200 C276.890,307.200 273.067,303.377 273.067,298.667 L273.067,281.600 ZM247.466,358.399 C242.756,358.399 238.933,354.576 238.933,349.866 L238.933,162.133 C238.933,159.505 240.144,157.022 242.218,155.409 C244.283,153.796 247.006,153.216 249.540,153.856 L386.073,187.990 C389.862,188.937 392.533,192.350 392.533,196.267 L392.533,469.334 C392.533,474.044 388.710,477.867 384.000,477.867 C379.290,477.867 375.467,474.044 375.466,469.334 L375.466,202.932 L255.999,173.065 L255.999,349.866 C255.999,354.576 252.176,358.399 247.466,358.399 ZM213.333,358.400 C208.623,358.400 204.800,354.577 204.800,349.867 L204.800,332.800 C204.800,328.090 208.623,324.267 213.333,324.267 C218.044,324.267 221.867,328.090 221.866,332.800 L221.866,349.867 C221.866,354.577 218.043,358.400 213.333,358.400 ZM221.867,298.667 C221.867,303.377 218.044,307.200 213.334,307.200 C208.624,307.200 204.801,303.377 204.801,298.667 L204.801,281.600 C204.801,276.890 208.624,273.067 213.334,273.067 C218.044,273.067 221.867,276.890 221.867,281.600 L221.867,298.667 ZM221.867,247.467 C221.867,252.177 218.044,256.000 213.334,256.000 C208.624,256.000 204.801,252.177 204.801,247.467 L204.801,230.400 C204.801,225.690 208.624,221.867 213.334,221.867 C218.044,221.867 221.867,225.690 221.867,230.400 L221.867,247.467 ZM221.867,196.267 C221.867,200.977 218.044,204.800 213.334,204.800 C208.624,204.800 204.801,200.977 204.801,196.267 L204.801,179.200 C204.801,174.490 208.624,170.667 213.334,170.667 C218.044,170.667 221.867,174.490 221.867,179.200 L221.867,196.267 ZM213.334,102.400 C208.624,102.400 204.801,98.577 204.801,93.867 L204.801,76.800 C204.801,72.090 208.624,68.267 213.334,68.267 C218.044,68.267 221.867,72.090 221.867,76.800 L221.867,93.867 C221.867,98.577 218.044,102.400 213.334,102.400 ZM221.867,145.067 C221.867,149.777 218.044,153.600 213.334,153.600 C208.624,153.600 204.801,149.777 204.801,145.067 L204.801,128.000 C204.801,123.290 208.624,119.467 213.334,119.467 C218.044,119.467 221.867,123.290 221.867,128.000 L221.867,145.067 ZM170.667,76.800 C170.667,72.090 174.490,68.267 179.200,68.267 C183.910,68.267 187.733,72.090 187.733,76.800 L187.733,93.867 C187.733,98.577 183.910,102.400 179.200,102.400 C174.490,102.400 170.667,98.577 170.667,93.867 L170.667,76.800 ZM170.667,128.000 C170.667,123.290 174.490,119.467 179.200,119.467 C183.910,119.467 187.733,123.290 187.733,128.000 L187.733,145.067 C187.733,149.777 183.910,153.600 179.200,153.600 C174.490,153.600 170.667,149.777 170.667,145.067 L170.667,128.000 ZM170.667,179.200 C170.667,174.490 174.490,170.667 179.200,170.667 C183.910,170.667 187.733,174.490 187.733,179.200 L187.733,196.267 C187.733,200.977 183.910,204.800 179.200,204.800 C174.490,204.800 170.667,200.977 170.667,196.267 L170.667,179.200 ZM170.667,230.400 C170.667,225.690 174.490,221.867 179.200,221.867 C183.910,221.867 187.733,225.690 187.733,230.400 L187.733,247.467 C187.733,252.177 183.910,256.000 179.200,256.000 C174.490,256.000 170.667,252.177 170.667,247.467 L170.667,230.400 ZM170.667,281.600 C170.667,276.890 174.490,273.067 179.200,273.067 C183.910,273.067 187.733,276.890 187.733,281.600 L187.733,298.667 C187.733,303.377 183.910,307.200 179.200,307.200 C174.490,307.200 170.667,303.377 170.667,298.667 L170.667,281.600 ZM170.667,332.800 C170.667,328.090 174.490,324.267 179.200,324.267 C183.910,324.267 187.733,328.090 187.733,332.800 L187.733,349.867 C187.733,354.577 183.910,358.400 179.200,358.400 C174.490,358.400 170.667,354.577 170.667,349.867 L170.667,332.800 ZM179.200,426.667 C183.910,426.667 187.733,430.490 187.733,435.200 L187.733,469.333 C187.733,474.043 183.910,477.866 179.200,477.866 C174.490,477.866 170.667,474.043 170.667,469.333 L170.667,435.200 C170.667,430.490 174.490,426.667 179.200,426.667 ZM170.667,384.000 C170.667,379.290 174.490,375.467 179.200,375.467 C183.910,375.467 187.733,379.290 187.733,384.000 L187.733,401.067 C187.733,405.777 183.910,409.600 179.200,409.600 C174.490,409.600 170.667,405.777 170.667,401.067 L170.667,384.000 ZM247.466,136.533 C242.756,136.533 238.933,132.710 238.933,128.000 L238.933,56.474 L196.266,35.141 L153.599,56.474 L153.599,128.000 C153.599,131.234 151.773,134.186 148.880,135.637 L119.466,150.340 L119.466,213.334 C119.466,218.044 115.643,221.867 110.933,221.867 C106.223,221.867 102.400,218.044 102.401,213.332 L102.401,145.065 C102.401,141.831 104.227,138.879 107.120,137.428 L136.534,122.725 L136.534,51.199 C136.534,47.965 138.360,45.013 141.253,43.562 L187.734,20.326 L187.734,8.533 C187.734,3.823 191.557,0.000 196.267,0.000 C200.977,0.000 204.800,3.823 204.800,8.533 L204.800,20.326 L251.281,43.563 C254.174,45.013 256.000,47.966 256.000,51.200 L256.000,128.000 C256.000,132.710 252.176,136.533 247.466,136.533 ZM145.066,204.800 C140.356,204.800 136.533,200.977 136.533,196.267 L136.533,179.200 C136.533,174.490 140.356,170.667 145.066,170.667 C149.776,170.667 153.599,174.490 153.599,179.200 L153.599,196.267 C153.599,200.977 149.776,204.800 145.066,204.800 ZM110.934,307.200 C106.224,307.200 102.401,303.377 102.401,298.667 L102.401,281.600 C102.401,276.890 106.224,273.067 110.934,273.067 C115.644,273.067 119.467,276.890 119.467,281.600 L119.467,298.667 C119.467,303.377 115.644,307.200 110.934,307.200 ZM119.467,349.867 C119.467,354.577 115.644,358.400 110.934,358.400 C106.224,358.400 102.401,354.577 102.401,349.867 L102.401,332.800 C102.401,328.090 106.224,324.267 110.934,324.267 C115.644,324.267 119.467,328.090 119.467,332.800 L119.467,349.867 ZM110.933,426.667 C115.644,426.667 119.467,430.490 119.466,435.200 L119.466,469.333 C119.466,474.043 115.643,477.866 110.933,477.866 C106.223,477.866 102.400,474.043 102.400,469.333 L102.400,435.200 C102.400,430.490 106.223,426.667 110.933,426.667 ZM102.400,384.000 C102.400,379.290 106.224,375.467 110.934,375.467 C115.644,375.467 119.467,379.290 119.467,384.000 L119.466,384.000 L119.466,401.067 C119.466,405.777 115.643,409.600 110.933,409.600 C106.223,409.600 102.400,405.777 102.400,401.067 L102.400,384.000 ZM76.800,477.866 C72.090,477.866 68.267,474.043 68.267,469.333 L68.267,435.200 C68.267,430.490 72.090,426.667 76.800,426.667 C81.510,426.667 85.333,430.490 85.333,435.200 L85.333,469.333 C85.333,474.043 81.510,477.866 76.800,477.866 ZM85.333,281.600 L85.333,298.667 C85.333,303.377 81.510,307.200 76.800,307.200 C72.090,307.200 68.267,303.377 68.267,298.667 L68.267,281.600 C68.267,276.890 72.090,273.067 76.800,273.067 C81.510,273.067 85.333,276.890 85.333,281.600 ZM153.599,247.467 L153.599,469.333 C153.599,474.043 149.776,477.866 145.066,477.866 C140.356,477.866 136.533,474.043 136.533,469.333 L136.533,256.000 L51.200,256.000 L51.200,298.667 C51.200,303.377 47.377,307.200 42.667,307.200 C37.956,307.200 34.133,303.377 34.133,298.667 L34.133,247.467 C34.133,242.757 37.956,238.934 42.666,238.934 L145.066,238.934 C149.776,238.934 153.599,242.757 153.599,247.467 Z"/>
</svg>