<svg xmlns="http://www.w3.org/2000/svg" xmlns:xlink="http://www.w3.org/1999/xlink" width="27" height="27" viewBox="0 0 27 27" preserveAspectRatio="none">
<path fill-rule="evenodd" d="M26.722,15.716 C26.666,15.738 26.608,15.749 26.550,15.749 C26.433,15.749 26.318,15.704 26.232,15.618 L13.499,2.885 L0.770,15.618 C0.684,15.704 0.569,15.749 0.452,15.749 C0.394,15.749 0.336,15.738 0.280,15.716 C0.112,15.645 0.002,15.482 0.002,15.300 L-0.000,4.050 C-0.000,3.930 0.047,3.816 0.132,3.732 C0.216,3.647 0.331,3.600 0.450,3.600 L5.400,3.600 L5.400,2.700 L4.950,2.700 C4.702,2.700 4.500,2.498 4.500,2.250 L4.500,0.450 C4.500,0.201 4.702,-0.001 4.950,-0.001 L8.550,-0.001 C8.798,-0.001 9.000,0.201 9.000,0.450 L9.000,2.250 C9.000,2.498 8.798,2.700 8.550,2.700 L8.100,2.700 L8.100,3.600 L9.000,3.600 C9.248,3.600 9.450,3.801 9.450,4.050 C9.450,4.298 9.248,4.499 9.000,4.499 L7.650,4.499 C7.402,4.499 7.200,4.298 7.200,4.050 L7.200,2.250 C7.200,2.001 7.402,1.800 7.650,1.800 L8.100,1.800 L8.100,0.900 L5.400,0.900 L5.400,1.800 L5.850,1.800 C6.098,1.800 6.300,2.001 6.300,2.250 L6.300,4.050 C6.300,4.298 6.098,4.499 5.850,4.499 L0.900,4.499 L0.900,14.213 L13.179,1.932 C13.267,1.843 13.383,1.800 13.499,1.800 C13.614,1.800 13.730,1.843 13.818,1.932 L26.100,14.213 L26.100,4.499 L18.000,4.499 C17.752,4.499 17.550,4.298 17.550,4.050 C17.550,3.801 17.752,3.600 18.000,3.600 L26.550,3.600 C26.798,3.600 27.000,3.801 27.000,4.050 L27.000,15.300 C27.000,15.481 26.890,15.645 26.722,15.716 ZM1.800,23.400 L1.800,16.200 C1.800,15.951 2.002,15.749 2.250,15.749 C2.498,15.749 2.700,15.951 2.700,16.200 L2.700,23.621 C2.779,23.663 2.857,23.709 2.929,23.761 C3.296,23.014 4.064,22.500 4.950,22.500 C6.060,22.500 6.984,23.307 7.167,24.365 C7.708,24.542 8.100,25.051 8.100,25.649 C8.100,26.394 7.494,26.999 6.750,26.999 L1.800,26.999 C0.807,26.999 -0.000,26.193 -0.000,25.200 C-0.000,24.207 0.807,23.400 1.800,23.400 ZM1.800,26.100 L6.750,26.100 C6.998,26.100 7.200,25.897 7.200,25.649 C7.200,25.402 6.998,25.200 6.750,25.200 C6.501,25.200 6.300,24.998 6.300,24.750 C6.300,24.005 5.694,23.400 4.950,23.400 C4.206,23.400 3.600,24.005 3.600,24.750 C3.600,24.967 3.444,25.154 3.230,25.193 C3.015,25.231 2.804,25.111 2.728,24.907 C2.593,24.544 2.220,24.300 1.800,24.300 C1.304,24.300 0.900,24.703 0.900,25.200 C0.900,25.696 1.304,26.100 1.800,26.100 ZM4.950,15.300 L8.550,15.300 C8.798,15.300 9.000,15.501 9.000,15.749 L9.000,20.700 L9.450,20.700 C9.698,20.700 9.900,20.901 9.900,21.150 C9.900,21.398 9.698,21.600 9.450,21.600 L4.050,21.600 C3.802,21.600 3.600,21.398 3.600,21.150 C3.600,20.901 3.802,20.699 4.050,20.699 L4.500,20.699 L4.500,15.749 C4.500,15.501 4.702,15.300 4.950,15.300 ZM5.400,20.699 L8.100,20.699 L8.100,18.899 L5.400,18.899 L5.400,20.699 ZM5.400,18.000 L8.100,18.000 L8.100,16.200 L5.400,16.200 L5.400,18.000 ZM11.700,9.000 C11.700,8.007 12.507,7.200 13.500,7.200 C14.493,7.200 15.300,8.007 15.300,9.000 C15.300,9.993 14.493,10.800 13.500,10.800 C12.507,10.800 11.700,9.993 11.700,9.000 ZM14.400,9.000 C14.400,8.503 13.996,8.100 13.500,8.100 C13.004,8.100 12.600,8.503 12.600,9.000 C12.600,9.496 13.004,9.900 13.500,9.900 C13.996,9.900 14.400,9.496 14.400,9.000 ZM9.450,24.300 L10.800,24.300 L10.800,15.749 C10.800,15.501 11.001,15.300 11.250,15.300 L15.750,15.300 C15.998,15.300 16.200,15.501 16.200,15.749 L16.200,24.300 L17.550,24.300 C17.798,24.300 18.000,24.501 18.000,24.750 C18.000,24.998 17.798,25.200 17.550,25.200 L9.900,25.200 L9.900,26.550 C9.900,26.798 9.698,26.999 9.450,26.999 C9.202,26.999 9.000,26.798 9.000,26.550 L9.000,24.750 C9.000,24.501 9.202,24.300 9.450,24.300 ZM11.700,24.300 L15.300,24.300 L15.300,20.699 L14.850,20.699 C14.602,20.699 14.400,20.498 14.400,20.250 C14.400,20.001 14.602,19.800 14.850,19.800 L15.300,19.800 L15.300,16.200 L11.700,16.200 L11.700,24.300 ZM18.450,15.300 L22.050,15.300 C22.298,15.300 22.500,15.501 22.500,15.749 L22.500,20.699 L22.950,20.699 C23.198,20.699 23.400,20.901 23.400,21.150 C23.400,21.398 23.198,21.600 22.950,21.600 L17.550,21.600 C17.302,21.600 17.100,21.398 17.100,21.150 C17.100,20.901 17.302,20.699 17.550,20.699 L18.000,20.699 L18.000,15.749 C18.000,15.501 18.202,15.300 18.450,15.300 ZM18.900,20.699 L21.600,20.699 L21.600,18.899 L18.900,18.899 L18.900,20.699 ZM18.900,18.000 L21.600,18.000 L21.600,16.200 L18.900,16.200 L18.900,18.000 ZM11.250,26.100 L18.983,26.100 C18.932,25.958 18.900,25.808 18.900,25.649 C18.900,25.051 19.292,24.542 19.833,24.365 C20.016,23.307 20.940,22.500 22.050,22.500 C22.936,22.500 23.704,23.014 24.070,23.761 C24.143,23.709 24.220,23.663 24.300,23.621 L24.300,16.200 C24.300,15.951 24.502,15.749 24.750,15.749 C24.998,15.749 25.200,15.951 25.200,16.200 L25.200,23.400 C26.193,23.400 27.000,24.207 27.000,25.200 C27.000,26.193 26.193,26.999 25.200,26.999 L22.050,26.999 L20.250,26.999 L11.250,26.999 C11.001,26.999 10.800,26.798 10.800,26.550 C10.800,26.301 11.001,26.100 11.250,26.100 ZM20.250,26.100 L22.050,26.100 L25.200,26.100 C25.696,26.100 26.100,25.696 26.100,25.200 C26.100,24.703 25.696,24.300 25.200,24.300 C24.780,24.300 24.407,24.544 24.271,24.907 C24.195,25.111 23.984,25.232 23.770,25.193 C23.556,25.154 23.400,24.968 23.400,24.750 C23.400,24.005 22.794,23.400 22.050,23.400 C21.306,23.400 20.700,24.005 20.700,24.750 C20.700,24.998 20.498,25.200 20.250,25.200 C20.002,25.200 19.800,25.402 19.800,25.649 C19.800,25.897 20.002,26.100 20.250,26.100 Z" fill="#fff"/>
</svg>