<svg width="44" height="44" version="1.1" viewBox="0 0 44 44" xmlns="http://www.w3.org/2000/svg">
 <defs>
  <radialGradient id="rg" r="150%" cx="30%" cy="107%">
    <stop stop-color="#fdf497" offset="0" />
    <stop stop-color="#fdf497" offset="0.05" />
    <stop stop-color="#fd5949" offset="0.45" />
    <stop stop-color="#d6249f" offset="0.6" />
    <stop stop-color="#285AEB" offset="0.9" />
  </radialGradient>
 </defs>
 <circle cx="22" cy="22" r="22" fill="#f6f6f6"/>
 <path d="m26.156 21.794c0 2.203-1.7967 3.9997-3.9997 3.9997s-3.9997-1.7967-3.9997-3.9997c0-2.2029 1.7967-3.9996 3.9997-3.9996s3.9997 1.7967 3.9997 3.9996zm2.1561 0c0-3.406-2.7498-6.1557-6.1558-6.1557s-6.1558 2.7497-6.1558 6.1557c0 3.406 2.7498 6.1558 6.1558 6.1558s6.1558-2.7498 6.1558-6.1558zm1.6874-6.4057c0-0.7968-0.64058-1.4374-1.4374-1.4374-0.79681 0-1.4374 0.64048-1.4374 1.4374 0 0.7968 0.64058 1.4374 1.4374 1.4374 0.79681 0 1.4374-0.64048 1.4374-1.4374zm-7.8431-3.4373c1.7499 0 5.4996-0.1406 7.0776 0.48412 0.54683 0.21921 0.95305 0.48412 1.3749 0.90618 0.42184 0.42142 0.68745 0.82802 0.90618 1.3749 0.62495 1.578 0.48433 5.3277 0.48433 7.0775 0 1.7499 0.14062 5.4996-0.48433 7.0776-0.21873 0.54678-0.48433 0.95305-0.90618 1.3749-0.42184 0.42221-0.82806 0.68731-1.3749 0.90618-1.578 0.6254-5.3277 0.48412-7.0776 0.48412-1.7499 0-5.4996 0.1406-7.0776-0.48412-0.54683-0.21921-0.95305-0.48412-1.3749-0.90618-0.42184-0.42221-0.68745-0.8281-0.90618-1.3749-0.62495-1.578-0.48433-5.3277-0.48433-7.0776 0-1.7498-0.14062-5.4995 0.48433-7.0775 0.21873-0.54682 0.48433-0.95308 0.90618-1.3749 0.42184-0.42221 0.82806-0.68727 1.3749-0.90618 1.578-0.62536 5.3277-0.48412 7.0776-0.48412zm11.999 9.843c0-1.6561 0.0155-3.2966-0.07808-4.9527-0.09373-1.9217-0.5312-3.6247-1.9373-5.0309-1.4061-1.4061-3.1091-1.8436-5.0309-1.9373-1.6561-0.09373-3.2966-0.07937-4.9527-0.07937-1.6561 0-3.2966-0.01512-4.9527 0.07937-1.9217 0.09373-3.6247 0.53095-5.0309 1.9373-1.4061 1.4062-1.8436 3.1092-1.9373 5.0309-0.09374 1.6561-0.07809 3.2966-0.07809 4.9527 0 1.6562-0.01565 3.2966 0.07809 4.9528 0.09374 1.9217 0.53121 3.6247 1.9373 5.0309 1.4061 1.4061 3.1091 1.8435 5.0309 1.9373 1.6561 0.09373 3.2966 0.07937 4.9527 0.07937 1.6561 0 3.2966 0.01512 4.9527-0.07937 1.9217-0.09373 3.6247-0.53091 5.0309-1.9373 1.4061-1.4061 1.8436-3.1092 1.9373-5.0309 0.09373-1.6562 0.07808-3.2966 0.07808-4.9528z" fill="url(#rg)" />
</svg>
