<svg width="8" height="8" viewBox="0 0 8 8" xmlns="http://www.w3.org/2000/svg">
<path fill-rule="evenodd" clip-rule="evenodd" d="M3.59173 1.70194C3.82611 1.96173 3.7518 2.25604 3.54456 2.53529C3.49542 2.6015 3.43879 2.66674 3.37039 2.73862C3.33755 2.77312 3.31195 2.79907 3.2584 2.85267C3.13678 2.97439 3.03455 3.07667 2.95169 3.15952C2.91151 3.19969 3.18584 3.74782 3.71824 4.28069C4.25035 4.81327 4.7985 5.08776 4.83887 5.04737L5.14537 4.74073C5.31416 4.5718 5.40354 4.49029 5.52637 4.40972C5.78171 4.24222 6.06023 4.1967 6.29513 4.40672C7.06208 4.95527 7.4961 5.2919 7.70872 5.5128C8.12344 5.94367 8.06909 6.60691 7.71107 6.98527C7.58693 7.11648 7.42952 7.27396 7.2436 7.45317C6.11898 8.5783 3.74551 7.89359 1.92651 6.07298C0.107092 4.25196 -0.577321 1.87851 0.54494 0.755758C0.746418 0.551134 0.812847 0.484745 1.00907 0.29142C1.3744 -0.0685165 2.06831 -0.124875 2.49013 0.291776C2.71201 0.510936 3.06575 0.966025 3.59173 1.70194Z" />
</svg>
