<svg width="60" height="60" viewBox="0 0 60 60" fill="none" xmlns="http://www.w3.org/2000/svg">
<path fill-rule="evenodd" clip-rule="evenodd" d="M29.9501 59.9502C13.4063 59.9502 0 46.5269 0 29.9735C0 13.42 13.4063 0 29.9501 0C46.4906 0 59.9002 13.42 59.9002 29.9735C59.9002 46.5269 46.4906 59.9502 29.9501 59.9502Z" fill="white"/>
<path fill-rule="evenodd" clip-rule="evenodd" d="M29.9145 2.80954C14.9235 2.80954 2.77148 14.9678 2.77148 29.9738C2.77148 41.4803 9.92537 51.311 20.021 55.2695C19.7836 53.1217 19.5719 49.8245 20.1172 47.4744C20.6081 45.3554 23.2996 33.9741 23.2996 33.9741C23.2996 33.9741 22.488 32.3464 22.488 29.9417C22.488 26.1629 24.6726 23.3441 27.3995 23.3441C29.7124 23.3441 30.832 25.0842 30.832 27.171C30.832 29.5019 29.3499 32.9853 28.5832 36.2151C27.9448 38.9215 29.9402 41.124 32.6029 41.124C37.4277 41.124 41.1362 36.0321 41.1362 28.6832C41.1362 22.1786 36.4685 17.6325 29.7991 17.6325C22.0773 17.6325 17.5444 23.4307 17.5444 29.4216C17.5444 31.7556 18.4395 34.2599 19.5623 35.6211C19.7836 35.8908 19.8157 36.1252 19.7515 36.4013C19.5462 37.2585 19.0875 39.1045 18.9977 39.4802C18.879 39.9778 18.6031 40.0838 18.0866 39.8462C14.6989 38.2666 12.5816 33.3031 12.5816 29.3221C12.5816 20.7532 18.802 12.881 30.5144 12.881C39.93 12.881 47.2475 19.5974 47.2475 28.5708C47.2475 37.9327 41.3479 45.4678 33.1643 45.4678C30.4118 45.4678 27.8261 44.0359 26.9407 42.3472C26.9407 42.3472 25.5805 47.5322 25.2501 48.8035C24.6373 51.1633 22.982 54.1202 21.8785 55.9245C24.416 56.7143 27.1139 57.1381 29.9145 57.1381C44.9056 57.1381 57.0576 44.9766 57.0576 29.9738C57.0576 14.9678 44.9056 2.80954 29.9145 2.80954Z" fill="#BD081C"/>
</svg>
