<svg  xmlns="http://www.w3.org/2000/svg" xmlns:xlink="http://www.w3.org/1999/xlink" width="613px" height="613px" viewBox="0 0 613 613">
<path  d="M306.500,612.499 C137.772,612.499 0.501,475.228 0.501,306.500 C0.501,137.772 137.772,0.501 306.500,0.501 C313.377,0.501 318.954,6.078 318.954,12.955 C318.954,19.832 313.377,25.409 306.500,25.409 C151.507,25.409 25.409,151.505 25.409,306.500 C25.409,461.495 151.507,587.593 306.500,587.593 C461.493,587.593 587.591,461.495 587.591,306.502 C587.591,261.152 577.130,217.873 556.497,177.859 C536.805,139.673 508.090,105.952 473.453,80.338 C467.924,76.247 466.753,68.448 470.844,62.919 C474.936,57.389 482.731,56.221 488.264,60.310 C525.953,88.182 557.205,124.882 578.634,166.443 C600.790,209.408 612.499,257.838 612.499,306.500 C612.499,475.228 475.228,612.499 306.500,612.499 ZM461.589,316.968 L309.099,415.216 C303.316,418.943 295.611,417.274 291.883,411.492 C288.157,405.711 289.826,398.004 295.607,394.278 L431.198,306.919 L246.810,197.151 L246.810,448.556 C246.810,455.435 241.232,461.010 234.355,461.010 C227.478,461.010 221.901,455.435 221.901,448.556 L221.901,175.242 C221.901,170.765 224.307,166.630 228.201,164.416 C232.095,162.201 236.873,162.250 240.726,164.540 L461.213,295.796 C464.918,298.002 467.218,301.967 467.295,306.278 C467.371,310.589 465.213,314.633 461.589,316.968 Z"/>
</svg>