<svg width="60" height="60" version="1.1" viewBox="0 0 119.68 119.68" preserveAspectRatio="xMidYMid meet" xmlns="http://www.w3.org/2000/svg">
 <path d="m119.67 59.843c0 33.046-26.791 59.837-59.837 59.837-33.046 0-59.837-26.791-59.837-59.837s26.791-59.837 59.837-59.837c33.046 0 59.837 26.791 59.837 59.837" fill="#4d76a1" stroke-width="1.3333"/>
 <path d="m57.577 86.088h4.6972s1.416-0.15466 2.1399-0.93731c0.66532-0.71732 0.64665-2.0626 0.64665-2.0626s-0.09466-6.3025 2.8333-7.2292c2.8853-0.91598 6.5825 6.0892 10.51 8.7811 2.9679 2.0413 5.2239 1.5933 5.2239 1.5933l10.489-0.14533s5.4892-0.33866 2.8853-4.6546c-0.21333-0.35599-1.516-3.1946-7.8025-9.0278-6.5772-6.1038-5.6972-5.1199 2.2293-15.681 4.8279-6.4332 6.7558-10.358 6.1558-12.042-0.57732-1.604-4.1239-1.1773-4.1239-1.1773l-11.818 0.07333s-0.87464-0.12-1.5253 0.26533c-0.63598 0.38132-1.0413 1.272-1.0413 1.272s-1.8706 4.9785-4.3652 9.2064c-5.2599 8.9384-7.3638 9.4064-8.2238 8.8544-2-1.296-1.5-5.1972-1.5-7.9678 0-8.6571 1.312-12.266-2.5573-13.198-1.2813-0.31066-2.2293-0.51599-5.5105-0.54665-4.2186-0.04667-7.7851 0.012-9.8064 0.99998-1.344 0.65598-2.3799 2.1253-1.7506 2.2079 0.78131 0.104 2.5533 0.47999 3.4906 1.756 1.208 1.6453 1.1666 5.3425 1.1666 5.3425s0.69732 10.193-1.6253 11.458c-1.5933 0.87198-3.7759-0.90531-8.4691-9.0104-2.3999-4.1506-4.2132-8.7384-4.2132-8.7384s-0.34932-0.85464-0.97331-1.3133c-0.76131-0.55732-1.8186-0.73332-1.8186-0.73332l-11.224 0.072s-1.6866 0.04666-2.3066 0.78131c-0.54665 0.65065-0.04133 2-0.04133 2s8.7864 20.562 18.738 30.923c9.1251 9.5038 19.49 8.8784 19.49 8.8784" fill="#fff" fill-rule="evenodd" stroke-width="1.3333"/>
</svg>
