<svg width="310.74" height="310.74" version="1.1" viewBox="0 0 310.74 310.74" xmlns="http://www.w3.org/2000/svg">
 <g stroke-width="1.3333">
  <path d="m155.37 0.014435c85.811 0 155.37 69.566 155.37 155.37 0 85.801-69.556 155.37-155.37 155.37-85.81 0-155.37-69.566-155.37-155.37 0-85.799 69.556-155.37 155.37-155.37" fill="#c4302b"/>
  <path d="m169.77 182.97-2.1453 0.34932-2.0893 1.0773v22.119c0.81731 0.57332 1.62 1.0106 2.4013 1.256l2.4373 0.37465c1.24 0 2.1466-0.23999 2.7293-0.75598 0.57332-0.49465 0.86931-1.312 0.86931-2.4266v-18.344c0-1.2133-0.33866-2.12-1.0573-2.7293-0.73864-0.60932-1.776-0.92131-3.1452-0.92131m-58.843-56.613h11.584v-28.227l13.489-39.812h-11.781l-7.1665 27.207h-0.73998l-7.5145-27.207h-11.682l13.806 41.083c5e-3 0 5e-3 26.957 5e-3 26.957m112.37 68.749h-18.838v6.9372c0 1.932 0.30666 3.2706 0.95731 4.0252 0.66132 0.75065 1.7813 1.12 3.3439 1.12 1.6506 0 2.7759-0.32266 3.4372-0.95331 0.64131-0.63998 0.99064-2.0306 0.99064-4.2026v-1.672h10.129v1.8853c0 3.7652-1.2133 6.6038-3.7186 8.5158-2.4679 1.9013-6.1612 2.8533-11.062 2.8533-4.4159 0-7.8958-1.0093-10.426-3.0306-2.5266-2-3.8079-4.7972-3.8079-8.3278v-16.532c0-3.1759 1.396-5.7959 4.1932-7.8065 2.7866-2 6.3598-2.9999 10.781-2.9999 4.5052 0 7.9678 0.93198 10.401 2.7866 2.4159 1.8533 3.6199 4.5359 3.6199 8.0158zm-38.9 10.828c0 2.5146-0.79732 4.4266-2.3799 5.7812-1.5626 1.348-3.8759 2.0093-6.8545 2.0093-1.9893 0-3.7599-0.25466-5.2919-0.77065-1.5466-0.51065-2.9999-1.3066-4.3226-2.4053v2.7186h-10.208v-48.124h10.208v15.505c1.38-1.068 2.8226-1.9013 4.3279-2.4639 1.5466-0.57332 3.0986-0.84398 4.6612-0.84398 3.1986 0 5.6359 0.74532 7.3132 2.2506 1.7026 1.516 2.5466 3.7399 2.5466 6.6398zm-38.707 7.3012h-10.224v-4.2132c-1.9013 1.5573-3.8546 2.7506-5.9118 3.5466-2.0306 0.83331-4.0106 1.2293-5.9372 1.2293-2.3639 0-4.1359-0.56799-5.3385-1.724-1.1826-1.1346-1.7973-2.8439-1.7973-5.1305v-32.061h10.224v29.41c0 0.91731 0.21466 1.5573 0.62531 1.964 0.44799 0.41599 1.156 0.59866 2.104 0.59866 0.73998 0 1.7133-0.26 2.8599-0.80132 1.1506-0.53732 2.2133-1.2146 3.1719-2.0626v-29.119h10.224zm-29.266-41.171h-9.8064v40.608h-9.4891v-40.608h-9.8078v-6.9212h29.103zm94.394-26.317h-110.89c-17.634 0-31.915 13.745-31.915 30.666v25.931c0 16.932 14.281 30.671 31.915 30.671h110.89c17.625 0 31.917-13.74 31.917-30.671v-25.931c5e-3 -16.926-14.292-30.666-31.917-30.666m-26.682-19.526c1.724 0 3.4852-0.98797 5.3132-1.9786 1.844-1.0093 3.5986-2.4906 5.2919-4.4106v5.2345h9.1758v-47.239h-9.1758v35.859c-0.85465 1.02-1.808 1.864-2.8293 2.5346-1.036 0.65732-1.8893 0.99998-2.5613 0.99998-0.86531 0-1.4946-0.24533-1.8653-0.75865-0.38532-0.49599-0.59865-1.3026-0.59865-2.4079v-36.222h-9.1611v39.472c0 2.8186 0.55732 4.9279 1.6146 6.3238 1.072 1.404 2.6666 2.5919 4.7959 2.5919m-37.65-35.618c0-0.89064 0.46932-1.6093 1.3906-2.1839 0.93197-0.55199 2.1359-0.82798 3.6092-0.82798 1.6146 0 2.9173 0.27599 3.8959 0.82798 0.98931 0.57465 1.4786 1.2933 1.4786 2.1839v22.395c0 1.104-0.48932 1.9773-1.4573 2.6093-0.96931 0.62532-2.2706 0.94265-3.9172 0.94265-1.5986 0-2.8439-0.30266-3.7079-0.93198-0.85464-0.60932-1.292-1.4853-1.292-2.6199zm5.1359 35.648c4.9159 0 8.7598-1.5653 11.577-3.7892 2.7973-2.2293 4.1932-5.2719 4.1932-9.1718v-23.563c0-3.4626-1.4266-6.3265-4.2706-8.5318-2.8653-2.2066-6.5265-3.3013-11.016-3.3013-4.9012 0-8.8224 1.0373-11.729 3.1266-2.9106 2.0986-4.3692 4.8945-4.3692 8.4371v23.633c0 3.8852 1.416 6.9545 4.2546 9.2571 2.8333 2.2999 6.6305 3.9039 11.36 3.9039" fill="#fff"/>
  <path d="m209.3 181.36c-1.5733 0-2.6879 0.33332-3.3799 1.0106-0.67731 0.65065-1.0053 1.76-1.0053 3.3012v3.7092h8.7078v-3.7092c0-1.5413-0.35866-2.6399-1.0413-3.3012-0.66665-0.67732-1.7866-1.0106-3.2812-1.0106" fill="#fff"/>
 </g>
</svg>
