<svg width="100" height="100" viewBox="0 0 100 100" fill="none" xmlns="http://www.w3.org/2000/svg">
<g clip-path="url(#clip0)">
<path d="M81.25 7.22656H32.4219V38.4766H81.25V7.22656Z" fill="#FFB954"/>
<path d="M73.4375 15.0391H26.5625V30.6641H73.4375V15.0391Z" fill="white"/>
<path d="M73.4375 15.0391H43.8789V30.6641H73.4375V15.0391Z" fill="#C9F3FF"/>
<path d="M19.335 66.6016H8.46289V92.7734H19.335V66.6016Z" fill="#D8D8E4"/>
<path d="M98.0469 84.9492H77.6035V92.7734H98.0469V84.9492Z" fill="#C9F3FF"/>
<path d="M69.3977 52.7344H62.1623H56.2272H48.4904H44.4635C41.157 52.7344 38.4766 54.7986 38.4766 57.3451V74.025H75.3846V57.3451C75.3846 54.7986 72.7041 52.7344 69.3977 52.7344Z" fill="#72D8FF"/>
<path d="M69.7266 73.6328H41.9258V82.2266H69.7266V73.6328Z" fill="#C9F3FF"/>
<path d="M80.6645 88.4767V75.9767C80.6645 73.9126 79.5207 72.1164 77.8326 71.1853C76.1445 72.1164 75.0008 73.9126 75.0008 75.9767V82.2267H69.727H35.5469H30.273V75.9767C30.273 73.9126 29.1291 72.1164 27.4412 71.1853C25.7531 72.1164 24.6094 73.9126 24.6094 75.9767V88.4767C24.6094 90.8498 26.5332 92.7736 28.9063 92.7736H30.273H35.5469H69.727H75.0008H76.3676C78.7406 92.7736 80.6645 90.8498 80.6645 88.4767Z" fill="#ADE5FF"/>
<path d="M90.1959 29.8179L84.7002 44.7267H98.0465L92.5506 29.8179H90.1959Z" fill="#FF5D5D"/>
<path d="M15.6898 44.2118C16.4783 43.1597 16.9457 41.8528 16.9457 40.4366C16.9457 38.1274 15.7029 36.1095 13.8504 35.0122C11.9979 36.1095 10.7553 38.1274 10.7553 40.4366C10.7553 41.8526 11.2225 43.1597 12.0109 44.2118C9.80488 45.7882 8.36523 48.3683 8.36523 51.2862C8.36523 54.9534 10.6377 58.088 13.8502 59.3642C17.0629 58.088 19.3354 54.9534 19.3354 51.2862C19.3354 48.3683 17.8959 45.788 15.6898 44.2118Z" fill="#A0E557"/>
<path d="M51.9531 9.17969H79.2967V22.0053C79.2967 23.0838 80.1713 23.9584 81.2498 23.9584C82.3283 23.9584 83.2029 23.0838 83.2029 22.0053V7.22656C83.2029 6.14805 82.3283 5.27344 81.2498 5.27344H51.9531C50.8746 5.27344 50 6.14805 50 7.22656C50 8.30508 50.8746 9.17969 51.9531 9.17969Z" fill="black"/>
<path d="M44.1406 9.17969C44.6543 9.17969 45.1582 8.9707 45.5213 8.60723C45.8848 8.24414 46.0938 7.74023 46.0938 7.22656C46.0938 6.71289 45.8848 6.20898 45.5213 5.8457C45.1582 5.48223 44.6543 5.27344 44.1406 5.27344C43.627 5.27344 43.123 5.48223 42.7598 5.8457C42.3965 6.20918 42.1875 6.71289 42.1875 7.22656C42.1875 7.74023 42.3963 8.24414 42.7598 8.60723C43.123 8.9707 43.627 9.17969 44.1406 9.17969Z" fill="black"/>
<path d="M26.5625 13.0859C25.484 13.0859 24.6094 13.9605 24.6094 15.0391V30.6641C24.6094 31.7426 25.484 32.6172 26.5625 32.6172H73.4375C74.516 32.6172 75.3906 31.7426 75.3906 30.6641V15.0391C75.3906 13.9605 74.516 13.0859 73.4375 13.0859H26.5625ZM71.4844 28.7109H28.5156V16.9922H71.4844V28.7109Z" fill="black"/>
<path d="M98.0469 82.9957H89.4531V46.6797H98.0469C98.6855 46.6797 99.2838 46.3674 99.649 45.8436C100.014 45.3197 100.1 44.6504 99.8795 44.051L94.3836 29.1422C94.1006 28.3744 93.3691 27.8647 92.551 27.8647H82.3838C81.5658 27.8647 80.8342 28.3744 80.5512 29.1422L77.8305 36.5234H20.7031V9.17969H35.2539C36.3324 9.17969 37.207 8.30508 37.207 7.22656C37.207 6.14805 36.3324 5.27344 35.2539 5.27344H18.75C17.6715 5.27344 16.7969 6.14805 16.7969 7.22656V34.9414C15.2842 33.2496 13.0869 32.1822 10.6443 32.1822C6.09277 32.1822 2.38984 35.8852 2.38984 40.4369C2.38984 41.6078 2.63086 42.7412 3.09609 43.7859C1.1334 45.7645 0 48.4611 0 51.2863C0 56.4883 3.75195 60.8277 8.69121 61.7478V64.6484H1.95312C0.874609 64.6484 0 65.523 0 66.6016V92.7734C0 93.852 0.874609 94.7266 1.95312 94.7266H19.3355C19.9254 94.7266 20.4527 94.4641 20.8109 94.0508C21.6592 94.482 22.6176 94.7266 23.6324 94.7266H76.3676C76.6367 94.7266 76.9014 94.7076 77.1617 94.6744C77.3041 94.7074 77.4518 94.7266 77.6041 94.7266H98.0469C99.1254 94.7266 100 93.852 100 92.7734V84.9486C100 83.8701 99.1254 82.9957 98.0469 82.9957ZM83.7455 31.7709H91.1893L95.2453 42.7734H87.5943C87.5629 42.7719 87.5318 42.7687 87.5 42.7687C87.4682 42.7687 87.4371 42.7721 87.4057 42.7734H79.6896L83.7455 31.7709ZM3.90625 51.2863C3.90625 49.1168 4.96348 47.0662 6.73418 45.801C7.16191 45.4955 7.44844 45.0303 7.52871 44.5107C7.60918 43.991 7.47676 43.4609 7.16133 43.0404C6.59531 42.2852 6.2959 41.3848 6.2959 40.4369C6.2959 38.0393 8.24648 36.0885 10.6441 36.0885C13.0418 36.0885 14.9924 38.0391 14.9924 40.4369C14.9924 41.385 14.6932 42.2852 14.127 43.0406C13.8117 43.4611 13.6793 43.9912 13.7598 44.5107C13.84 45.0303 14.1266 45.4953 14.5543 45.801C16.325 47.0662 17.3822 49.1168 17.3822 51.2863C17.3822 54.3227 15.3631 56.8953 12.5973 57.7348V50.9717C12.5973 49.8932 11.7227 49.0186 10.6441 49.0186C9.56563 49.0186 8.69102 49.8932 8.69102 50.9717V57.7348C5.92539 56.8953 3.90625 54.3227 3.90625 51.2863ZM12.5975 61.7478C17.5367 60.8277 21.2887 56.4883 21.2887 51.2863C21.2887 48.4611 20.1553 45.7646 18.1926 43.7857C18.6576 42.741 18.8986 41.6078 18.8986 40.4369C18.8986 40.4346 18.8984 40.4322 18.8984 40.4299H76.3902L75.0553 44.0512C74.8344 44.6504 74.9205 45.3197 75.2857 45.8438C75.651 46.3678 76.2494 46.6799 76.8879 46.6799H85.5469V82.9959H82.6176V75.9766C82.6176 72.6285 80.3887 69.7924 77.3373 68.8709V58.7211C77.3373 54.343 73.7756 50.7812 69.3975 50.7812H30.7912C26.4131 50.7812 22.8512 54.343 22.8512 58.7211V68.8172C22.3027 68.967 21.7789 69.177 21.2887 69.4418V66.6016C21.2887 65.523 20.4141 64.6484 19.3355 64.6484H12.5975V61.7478ZM32.2158 75.5859H67.7842C67.7773 75.7154 67.7738 75.8455 67.7738 75.9766V80.2734H32.2262V75.9766C32.2262 75.8455 32.2225 75.7154 32.2158 75.5859ZM69.15 71.6797H30.85C29.8686 70.3029 28.4303 69.2744 26.7574 68.8174V58.7213C26.7574 56.4971 28.567 54.6877 30.7912 54.6877H69.3973C71.6215 54.6877 73.4309 56.4973 73.4309 58.7213V68.7686C71.6777 69.1977 70.168 70.2514 69.15 71.6797ZM17.3824 90.8203H3.90625V68.5547H17.3824V90.8203ZM21.2887 88.4766V75.9766C21.2887 74.0381 22.8658 72.4609 24.8043 72.4609C26.7428 72.4609 28.3199 74.0381 28.3199 75.9766V82.2266C28.3199 83.3051 29.1945 84.1797 30.273 84.1797H69.727C70.8055 84.1797 71.6801 83.3051 71.6801 82.2266V75.9766C71.6801 74.0381 73.2572 72.4609 75.1957 72.4609C77.1342 72.4609 78.7113 74.0381 78.7113 75.9766V88.4766C78.7113 89.7689 77.66 90.8203 76.3676 90.8203H23.6324C22.34 90.8203 21.2887 89.7689 21.2887 88.4766ZM96.0938 90.8203H82.1598C82.4539 90.0961 82.6176 89.3053 82.6176 88.4766V86.9018H96.0938V90.8203Z" fill="black"/>
<path d="M57.6295 58.5938H48.7754C47.6969 58.5938 46.8223 59.4684 46.8223 60.5469C46.8223 61.6254 47.6969 62.5 48.7754 62.5H57.6295C58.708 62.5 59.5826 61.6254 59.5826 60.5469C59.5826 59.4684 58.708 58.5938 57.6295 58.5938Z" fill="black"/>
<path d="M41.9258 58.5938C41.4121 58.5938 40.9102 58.8025 40.5449 59.166C40.1816 59.5293 39.9727 60.0332 39.9727 60.5469C39.9727 61.0605 40.1814 61.5645 40.5449 61.9275C40.9102 62.2908 41.4121 62.5 41.9258 62.5C42.4414 62.5 42.9453 62.291 43.3086 61.9275C43.6717 61.5645 43.8789 61.0605 43.8789 60.5469C43.8789 60.0332 43.6717 59.5293 43.3086 59.166C42.9453 58.8025 42.4414 58.5938 41.9258 58.5938Z" fill="black"/>
</g>
<defs>
<clipPath id="clip0">
<rect width="100" height="100" fill="white"/>
</clipPath>
</defs>
</svg>
