<svg width="100" height="100" viewBox="0 0 100 100" fill="none" xmlns="http://www.w3.org/2000/svg">
<g clip-path="url(#clip0)">
<path d="M56.3406 23.7578L29.2969 44.7265V98.0467H83.4425V44.7265L56.3406 23.7578Z" fill="#FEDA9B"/>
<path d="M53.3187 50.0002H36.9141V73.8244H53.3187V50.0002Z" fill="white"/>
<path d="M44.7265 1.95337L1.95312 44.7267H8.39843L47.9491 5.17602L44.7265 1.95337Z" fill="white"/>
<path d="M47.9492 17.904L74.7718 44.7267L78.349 41.8585L51.1719 14.6814L47.9492 17.904Z" fill="white"/>
<path d="M47.9491 5.17603L8.39844 44.7267H14.6812L44.7265 14.6815L47.9491 17.9041L51.1718 14.6815L78.3489 41.8586L81.836 39.0629L47.9491 5.17603Z" fill="#FF5D5D"/>
<path d="M29.2963 57.0315H20.377V72.6565H29.2963V57.0315Z" fill="#FFC66C"/>
<path d="M98.0468 42.7737L42.7734 98.047H52.0508L98.0468 52.051V42.7737Z" fill="white"/>
<path d="M52.0508 98.047H98.0468V52.051L52.0508 98.047Z" fill="#C9F3FF"/>
<path d="M66.3496 88.2813H88.281V66.3499L66.3496 88.2813Z" fill="white"/>
<path d="M38.3415 80.0729L79.3606 39.0538L86.9582 36.2714L89.0598 30.533L75.7236 35.4167L34.7046 76.436C32.3706 78.77 32.3706 82.5541 34.7046 84.8883C35.3556 85.5395 36.1198 86.0084 36.9337 86.2963C36.1895 84.1926 36.6587 81.7559 38.3415 80.0729Z" fill="white"/>
<path d="M43.1573 84.8884L84.1762 43.8694L86.9586 36.2717L79.361 39.0541L38.3419 80.0732C36.6591 81.7562 36.1899 84.1929 36.9341 86.2964C39.0376 87.0404 41.4743 86.5714 43.1573 84.8884Z" fill="#FFB954"/>
<path d="M79.2588 38.9518L81.7174 41.4105L84.1762 43.8691L87.0176 36.1104L79.2588 38.9518Z" fill="#686C83"/>
<path d="M38.13 79.8613L40.6372 77.3541L37.2118 73.9287L34.7046 76.4359C32.3706 78.7699 32.3706 82.5541 34.7046 84.8883C35.3144 85.498 36.0237 85.947 36.78 86.2383C35.9569 84.1006 36.406 81.5855 38.13 79.8613Z" fill="white"/>
<path d="M43.1571 84.8882L45.6644 82.3809L40.6374 77.354L38.1302 79.8612C36.406 81.5854 35.9571 84.1005 36.7802 86.2382C38.9179 87.0612 41.4329 86.6124 43.1571 84.8882Z" fill="#FF5D5D"/>
<path d="M44.7266 42.383C47.7469 42.383 50.1953 39.9346 50.1953 36.9143C50.1953 33.894 47.7469 31.4456 44.7266 31.4456C41.7063 31.4456 39.2578 33.894 39.2578 36.9143C39.2578 39.9346 41.7063 42.383 44.7266 42.383Z" fill="#FF8E4B"/>
<path d="M71.875 31.0549C72.3887 31.0549 72.8926 30.8459 73.2557 30.4827C73.6189 30.1194 73.8281 29.6155 73.8281 29.1018C73.8281 28.5881 73.6191 28.0842 73.2557 27.7209C72.8926 27.3577 72.3887 27.1487 71.875 27.1487C71.3613 27.1487 70.8574 27.3577 70.4941 27.7209C70.1309 28.0842 69.9219 28.5862 69.9219 29.1018C69.9219 29.6155 70.1307 30.1194 70.4941 30.4827C70.8576 30.8459 71.3613 31.0549 71.875 31.0549Z" fill="black"/>
<path d="M29.2968 55.0784H13.6719C12.5934 55.0784 11.7188 55.9528 11.7188 57.0315V72.6565C11.7188 73.7352 12.5934 74.6096 13.6719 74.6096H29.2968C30.3754 74.6096 31.25 73.7352 31.25 72.6565V57.0315C31.25 55.9528 30.3755 55.0784 29.2968 55.0784ZM27.3437 70.7033H15.625V58.9846H27.3437V70.7033Z" fill="black"/>
<path d="M98.7942 40.9691C98.0643 40.6666 97.2241 40.8341 96.6657 41.3923L76.7638 61.2943C76.7636 61.2946 76.7632 61.2948 76.7628 61.2952C76.7624 61.2956 76.7622 61.2958 76.762 61.2962L53.5621 84.4962C53.5617 84.4966 53.5615 84.4968 53.5611 84.4972C53.5607 84.4975 53.5605 84.4977 53.5601 84.4981L41.3924 96.6659C40.834 97.2245 40.6668 98.0647 40.9689 98.7944C41.2713 99.5243 41.9834 100 42.7734 100H98.0467C99.1252 100 99.9999 99.1256 99.9999 98.0469V42.7736C99.9999 41.9837 99.5241 41.2714 98.7942 40.9691ZM96.0936 96.0938H47.4888L54.9421 88.6405L56.8066 90.505C57.188 90.8864 57.6878 91.077 58.1876 91.077C58.6874 91.077 59.1872 90.8864 59.5687 90.505C60.3314 89.7423 60.3314 88.5055 59.5687 87.7427L57.7042 85.8782L62.6761 80.9063L64.5404 82.7706C64.9218 83.152 65.4216 83.3427 65.9214 83.3427C66.4212 83.3427 66.921 83.1518 67.3025 82.7706C68.0651 82.0079 68.0651 80.7712 67.3025 80.0085L65.438 78.144L70.4099 73.1722L72.2743 75.0366C72.6558 75.4181 73.1556 75.6087 73.6554 75.6087C74.1552 75.6087 74.655 75.4181 75.0364 75.0366C75.7991 74.2739 75.7991 73.0372 75.0364 72.2743L73.172 70.4099L78.1436 65.4382L80.0081 67.3027C80.3895 67.6841 80.8893 67.8747 81.3891 67.8747C81.889 67.8747 82.3888 67.6841 82.7702 67.3027C83.5329 66.54 83.5329 65.3032 82.7702 64.5403L80.9058 62.6759L85.8776 57.704L87.7419 59.5683C88.1233 59.9497 88.6231 60.1404 89.1229 60.1404C89.6227 60.1404 90.1225 59.9495 90.504 59.5683C91.2667 58.8056 91.2667 57.5689 90.504 56.8062L88.6395 54.9417L96.0936 47.4888V96.0938Z" fill="black"/>
<path d="M89.0285 64.5453C88.2986 64.2428 87.4584 64.4102 86.9 64.9686L64.9686 86.9002C64.4102 87.4587 64.2428 88.2988 64.5452 89.0287C64.8475 89.7585 65.5596 90.2343 66.3497 90.2343H88.2811C89.3596 90.2343 90.2342 89.3599 90.2342 88.2812V66.3498C90.2342 65.56 89.7584 64.8477 89.0285 64.5453ZM86.3279 86.3281H71.0651L86.3279 71.065V86.3281Z" fill="black"/>
<path d="M38.931 88.5885C40.9614 88.5885 42.9925 87.8155 44.5382 86.2698L61.0092 69.7987C61.7719 69.036 61.7719 67.7993 61.0092 67.0366C60.2465 66.2739 59.0102 66.2739 58.2469 67.0366L45.768 79.5155L40.078 73.8254L75.7629 38.1406L81.4529 43.8306L67.8172 57.4665C67.0545 58.2292 67.0545 59.4659 67.8172 60.2286C68.5801 60.9913 69.8164 60.9913 70.5795 60.2286L85.5572 45.2509C85.7578 45.0501 85.9125 44.8079 86.01 44.5415L90.8939 31.2054C91.1555 30.4913 90.9789 29.6904 90.4412 29.1527C89.9035 28.6152 89.1031 28.4382 88.3885 28.6997L75.0524 33.5835C74.7858 33.6812 74.5438 33.8357 74.3428 34.0365L70.593 37.7863L46.1075 13.3006C45.7411 12.9343 45.2444 12.7285 44.7265 12.7285C44.2085 12.7285 43.7116 12.9343 43.3454 13.3006L13.8722 42.7737H6.66851L44.7265 4.71562L65.611 25.6001C66.3739 26.3628 67.6102 26.3628 68.3733 25.6001C69.136 24.8375 69.136 23.6007 68.3733 22.8378L46.1077 0.572264C45.3448 -0.190429 44.1085 -0.190429 43.3454 0.572264L0.57204 43.3456C0.0136429 43.9042 -0.153544 44.7442 0.148604 45.4741C0.450947 46.2042 1.16305 46.68 1.95309 46.68H3.90621V98.0471C3.90621 99.1258 4.78082 100 5.85934 100H36.9112C37.9897 100 38.8643 99.1258 38.8643 98.0471C38.8643 96.9684 37.9897 96.094 36.9112 96.094H7.81246V46.68H14.6812C15.1992 46.68 15.6958 46.4741 16.0622 46.1079L44.7265 17.4437L67.8307 40.5482L38.8671 69.512V51.9534H52.5389C53.6175 51.9534 54.4921 51.079 54.4921 50.0003C54.4921 48.9216 53.6175 48.0472 52.5389 48.0472H36.914C35.8355 48.0472 34.9608 48.9216 34.9608 50.0003V72.6565C34.9608 72.8844 35.0019 73.102 35.0735 73.3053L33.3237 75.0551C30.2319 78.1469 30.2319 83.1778 33.3237 86.2696C34.8698 87.8157 36.9001 88.5887 38.931 88.5885ZM83.4151 40.2679L79.3256 36.1784L85.7783 33.8154L83.4151 40.2679ZM36.086 77.8174L37.3161 76.5873L43.0061 82.2774L41.7761 83.5075C41.0161 84.2674 40.006 84.686 38.9311 84.686C37.8563 84.686 36.846 84.2674 36.0862 83.5075C35.3261 82.7475 34.9077 81.7371 34.9077 80.6625C34.9077 79.5879 35.3259 78.5774 36.086 77.8174Z" fill="black"/>
<path d="M62.998 62.2852C62.6348 62.6504 62.4258 63.1523 62.4258 63.666C62.4258 64.1816 62.6346 64.6836 62.998 65.0488C63.3613 65.4121 63.8633 65.6191 64.3789 65.6191C64.8926 65.6191 65.3965 65.4121 65.7596 65.0488C66.1228 64.6836 66.332 64.1797 66.332 63.666C66.332 63.1523 66.123 62.6504 65.7596 62.2852C65.3965 61.9219 64.8926 61.7129 64.3789 61.7129C63.8652 61.7129 63.3613 61.9219 62.998 62.2852Z" fill="black"/>
<path d="M52.1484 36.9143C52.1484 32.8219 48.8189 29.4924 44.7265 29.4924C40.6342 29.4924 37.3047 32.8219 37.3047 36.9143C37.3047 41.0067 40.6342 44.3362 44.7265 44.3362C48.8189 44.3362 52.1484 41.0067 52.1484 36.9143ZM41.2109 36.9143C41.2109 34.9758 42.7881 33.3987 44.7265 33.3987C46.665 33.3987 48.2422 34.9758 48.2422 36.9143C48.2422 38.8528 46.665 40.4299 44.7265 40.4299C42.7881 40.4299 41.2109 38.853 41.2109 36.9143Z" fill="black"/>
</g>
<defs>
<clipPath id="clip0">
<rect width="100" height="100" fill="white"/>
</clipPath>
</defs>
</svg>
