<svg width="100" height="100" viewBox="0 0 100 100" fill="none" xmlns="http://www.w3.org/2000/svg">
<g clip-path="url(#clip0)">
<path d="M64.5791 58.2915C66.7039 56.8885 68.1405 54.3265 68.3602 51.4487V48.0361C70.8848 48.0361 72.9317 45.9891 72.9317 43.4646C72.9317 40.9408 70.8848 38.8938 68.3602 38.8938V32.9482C68.3602 24.6352 62.8266 17.6162 55.2422 15.3708C47.6571 17.6162 42.1235 24.6352 42.1235 32.9482H42.0518V51.448C42.2715 54.3258 43.6745 56.8885 45.8001 58.2915L55.2033 63.668L64.5791 58.2915Z" fill="#FEBBA0"/>
<path d="M50.0049 71.5401C53.4938 71.5401 56.5547 69.7136 58.2896 66.967C58.2446 66.7496 58.2195 66.526 58.2195 66.2979V62.323L50.0049 65.5037L41.7697 62.323V66.2979C41.7697 66.5176 41.7461 66.7328 41.7041 66.9426C43.4367 69.7037 46.5053 71.5401 50.0049 71.5401Z" fill="#FEBBA0"/>
<path d="M73.3773 74.807L60.2441 69.3352C60.1739 69.3055 60.1045 69.2734 60.0373 69.2391C60.0144 69.2284 59.9923 69.2154 59.9702 69.204C59.9252 69.1803 59.8809 69.1559 59.8374 69.1307C59.8123 69.1155 59.7878 69.1002 59.7627 69.0842C59.7238 69.0598 59.6856 69.0346 59.6475 69.0087C59.6223 68.9911 59.5971 68.9743 59.5727 68.956C59.5361 68.9293 59.5002 68.9019 59.4644 68.8736C59.4415 68.8553 59.4178 68.837 59.3949 68.8179C59.3522 68.7821 59.3102 68.7447 59.2698 68.7065C59.2355 68.6745 59.2019 68.6409 59.1691 68.6074C59.1416 68.5799 59.1142 68.5524 59.0882 68.5242C59.0608 68.4944 59.0348 68.4639 59.0081 68.4326C58.9883 68.409 58.9684 68.3861 58.9494 68.3617C58.9219 68.3281 58.8952 68.293 58.8693 68.2587C58.854 68.2373 58.8387 68.216 58.8235 68.1946C58.796 68.1557 58.7693 68.1176 58.7441 68.0779C58.7342 68.0619 58.7251 68.0466 58.7151 68.0306C58.6183 67.8742 58.5343 67.7109 58.4641 67.54C58.4641 67.5392 58.4641 67.5392 58.4641 67.5392C58.442 67.4843 58.4222 67.4294 58.4023 67.3729C58.3985 67.3622 58.3947 67.3516 58.3909 67.3401C58.3734 67.2859 58.3558 67.231 58.3405 67.1753C58.3383 67.1646 58.3352 67.154 58.3322 67.1433C58.3169 67.0853 58.3024 67.0266 58.2902 66.967C56.5553 69.7144 53.4944 71.5401 50.0054 71.5401C49.9276 71.5401 49.8513 71.534 49.7743 71.5325L41.9145 74.807C39.1404 75.9636 37.333 79.1054 37.333 82.1114V97.9492H77.9595V82.1114C77.9595 79.1054 76.1514 75.9629 73.3773 74.807Z" fill="#89CD38"/>
<path d="M61.6364 69.915V84.1286H37.3535V97.9492H69.4931V73.1888L61.6364 69.915Z" fill="#FFA036"/>
<path d="M73.6652 32.9292V28.778C73.6652 28.3691 73.3333 28.0372 72.9236 28.0372H71.6403C71.2939 22.6066 68.9662 17.5529 65.0386 13.742C62.3012 11.0862 58.9824 9.22772 55.379 8.2832C51.7726 9.22772 48.4508 11.0847 45.7118 13.742C41.7842 17.5537 39.4565 22.6066 39.1101 28.0372H38.222C37.8123 28.0372 37.4805 28.3691 37.4805 28.778V32.9292C37.4805 33.3381 37.8123 33.67 38.222 33.67H72.9236C73.3333 33.67 73.6652 33.3381 73.6652 32.9292Z" fill="#FFA036"/>
<path d="M97.9492 67.1151V54.467H84.6855V67.1151C84.6855 68.4983 85.817 69.6305 87.201 69.6305H95.4346C96.8178 69.6305 97.9492 68.4983 97.9492 67.1151Z" fill="#DEDDE1"/>
<path d="M84.084 54.467H97.9496V60.5637H84.084V54.467Z" fill="#1991E2"/>
<path d="M84.3613 69.8342V85.7552C84.3613 87.3269 85.6469 88.6125 87.2178 88.6125C88.7894 88.6125 90.075 87.3269 90.075 85.7552V69.8342" fill="#314967"/>
<path d="M10.8152 51.0811C12.6104 51.0811 14.0798 49.6116 14.0798 47.8157V34.51C14.0798 32.7141 12.6104 31.2446 10.8152 31.2446C9.01923 31.2446 7.5498 32.7141 7.5498 34.51V47.8157C7.5498 49.6116 9.01923 51.0811 10.8152 51.0811Z" fill="#314967"/>
<path d="M14.404 2.81519C11.3538 4.19382 9.2168 7.26617 9.2168 10.8154V21.8513H19.5905V10.8154C19.5905 7.26617 17.4535 4.19382 14.404 2.81519Z" fill="#DEDDE1"/>
<path d="M97.9594 99.9901H97.9327C96.8058 99.9901 95.8926 99.0761 95.8926 97.9493C95.8926 96.8224 96.8058 95.9092 97.9327 95.9092H97.9594C99.0862 95.9092 100 96.8224 100 97.9493C100 99.0761 99.0862 99.9901 97.9594 99.9901Z" fill="black"/>
<path d="M2.07733 99.9901H2.05063C0.923767 99.9901 0.00976562 99.0761 0.00976562 97.9493C0.00976562 96.8224 0.923767 95.9092 2.05063 95.9092H2.07733C3.20419 95.9092 4.11743 96.8224 4.11743 97.9493C4.11743 99.0761 3.20419 99.9901 2.07733 99.9901Z" fill="black"/>
<path d="M42.5627 45.9862C41.3053 45.9862 40.2822 44.9631 40.2822 43.7057C40.2822 42.4477 41.3053 41.4246 42.5627 41.4246C43.82 41.4246 44.8438 42.4477 44.8438 43.7057C44.8438 44.9631 43.82 45.9862 42.5627 45.9862Z" fill="black"/>
<path d="M57.4472 45.9862C56.1899 45.9862 55.166 44.9631 55.166 43.7057C55.166 42.4477 56.1899 41.4246 57.4472 41.4246C58.7045 41.4246 59.7284 42.4477 59.7284 43.7057C59.7276 44.9631 58.7045 45.9862 57.4472 45.9862Z" fill="black"/>
<path d="M49.9963 57.1143C47.7716 57.1143 45.9619 55.3039 45.9619 53.0792C45.9619 51.9523 46.8759 51.0391 48.0028 51.0391H51.9907C53.1175 51.0391 54.0315 51.9523 54.0315 53.0792C54.0315 55.3039 52.2211 57.1143 49.9963 57.1143Z" fill="black"/>
<path d="M50.0324 86.1693H50.0057C48.8788 86.1693 47.9648 85.2561 47.9648 84.1285C47.9648 83.0016 48.8788 82.0884 50.0057 82.0884H50.0324C51.1593 82.0884 52.0725 83.0016 52.0725 84.1285C52.0725 85.2561 51.1593 86.1693 50.0324 86.1693Z" fill="black"/>
<path d="M50.0051 86.1693H49.9784C48.8515 86.1693 47.9375 85.2561 47.9375 84.1285C47.9375 83.0016 48.8515 82.0884 49.9784 82.0884H50.0051C51.1319 82.0884 52.0452 83.0016 52.0452 84.1285C52.0452 85.2561 51.1319 86.1693 50.0051 86.1693Z" fill="black"/>
<path d="M91.3311 95.9092H80.0098V82.1114C80.0098 78.1342 77.6096 74.3554 74.1725 72.9233L61.0401 67.4515C60.5724 67.257 60.271 66.8046 60.271 66.298V63.1302L65.6353 60.0632C65.6734 60.0419 65.7108 60.019 65.7474 59.9946C68.3963 58.2451 70.1381 55.1087 70.4059 51.6038C70.4097 51.5519 70.4113 51.5 70.4113 51.4481V49.7544C73.0617 48.8923 74.982 46.399 74.982 43.4647C74.982 40.5312 73.0617 38.0372 70.4113 37.1758V35.5233H72.4834C74.0093 35.5233 75.2513 34.282 75.2513 32.7561V28.6866C75.2513 27.5101 74.5128 26.5031 73.4752 26.1033C72.7603 20.9351 70.3426 16.15 66.5622 12.4818C63.7737 9.7756 60.39 7.81714 56.6967 6.75894V5.42609C56.6967 3.84985 55.4554 2.56812 53.9295 2.56812H46.0811C44.5552 2.56812 43.3139 3.84985 43.3139 5.42609V6.87338C39.7724 7.95676 36.5215 9.87555 33.8359 12.4818C30.0846 16.1217 27.676 20.8604 26.9397 25.9827C25.6946 26.2528 24.7592 27.3629 24.7592 28.6873V32.7569C24.7592 34.2827 26.0013 35.524 27.5272 35.524H29.5993V37.1758C26.9489 38.0379 25.0286 40.5312 25.0286 43.4655C25.0286 46.399 26.9489 48.893 29.5993 49.7544V51.4489C29.5993 51.5008 29.6009 51.5526 29.6047 51.6045C29.8717 55.0942 31.6257 58.2314 34.296 59.9953C34.3318 60.019 34.3685 60.0411 34.4051 60.0625L39.7396 63.1211V66.2987C39.7396 66.8046 39.4382 67.2578 38.9713 67.4515L25.838 72.9241C22.401 74.3561 20.0008 78.1342 20.0008 82.1114V95.9092H8.67953C7.55267 95.9092 6.63867 96.8232 6.63867 97.95C6.63867 99.0769 7.55267 99.9901 8.67953 99.9901H91.3311C92.4579 99.9901 93.3719 99.0769 93.3719 97.95C93.3719 96.8232 92.4579 95.9092 91.3311 95.9092ZM28.841 30.0004C29.8923 29.9721 30.7544 29.1459 30.8216 28.0907C31.129 23.2804 33.2088 18.7775 36.6786 15.4107C38.5929 13.5529 40.8527 12.1186 43.3139 11.1855V26.2597C43.3139 27.3865 44.2279 28.2998 45.3548 28.2998C46.4817 28.2998 47.3957 27.3865 47.3957 26.2597V6.64908H52.6157L52.6485 26.2589C52.6485 27.3865 53.5617 28.2998 54.6886 28.2998C55.8155 28.2998 56.7295 27.3865 56.7295 26.2589V11.0558C59.3273 11.9828 61.7099 13.4606 63.7195 15.4107C67.1894 18.7775 69.2691 23.2804 69.5766 28.0907C69.6353 29.0131 70.3014 29.76 71.1696 29.9523V31.4423H28.841V30.0004ZM36.4963 56.5568C34.9384 55.5016 33.8657 53.5241 33.6803 51.3665V48.0363C33.6803 46.9094 32.7663 45.9954 31.6402 45.9954C30.2448 45.9954 29.1095 44.8601 29.1095 43.4655C29.1095 42.0701 30.2448 40.9348 31.6402 40.9348C32.7663 40.9348 33.6803 40.0216 33.6803 38.8947V35.524H66.3303V38.8947C66.3303 40.0216 67.2443 40.9348 68.3712 40.9348C69.7658 40.9348 70.9011 42.0701 70.9011 43.4655C70.9011 44.8601 69.7658 45.9954 68.3712 45.9954C67.2443 45.9954 66.3303 46.9094 66.3303 48.0363V51.3665C66.1426 53.5691 65.1073 55.5001 63.5479 56.556L52.56 62.8373C52.5219 62.8594 52.4845 62.8823 52.4478 62.9059C50.9182 63.9168 49.0917 63.9168 47.562 62.9059C47.5261 62.8823 47.4895 62.8602 47.4529 62.8388L36.4963 56.5568ZM56.1931 66.3979C54.7306 68.3495 52.4601 69.4993 49.995 69.4993C47.5429 69.4993 45.28 68.3587 43.8167 66.4223C43.8175 66.3804 43.8213 66.3399 43.8213 66.298V65.461L45.3701 66.3491C46.8029 67.2799 48.4035 67.7453 50.0049 67.7453C51.6063 67.7453 53.207 67.2799 54.639 66.3499L56.1893 65.4633V66.298C56.1893 66.3315 56.1924 66.3643 56.1931 66.3979ZM28.4771 95.9092H24.0818V82.1114C24.0818 79.8112 25.5115 77.4804 27.4082 76.6907L28.4771 76.2452V95.9092ZM67.4526 95.9092H32.558V74.5446L36.333 72.9722V84.1286C36.333 85.2555 37.247 86.1695 38.3739 86.1695H43.3773C44.5041 86.1695 45.4174 85.2555 45.4174 84.1286C45.4174 83.0018 44.5041 82.0885 43.3773 82.0885H40.4148V71.2716L40.5406 71.2189C41.045 71.0084 41.5042 70.7276 41.9086 70.3904C44.0731 72.4229 46.9387 73.5802 49.995 73.5802C53.059 73.5802 55.9276 72.4198 58.0921 70.3812C58.4995 70.7223 58.9611 71.0068 59.4699 71.2189L59.5958 71.2716V82.0885H56.6333C55.5065 82.0885 54.5925 83.0018 54.5925 84.1286C54.5925 85.2563 55.5065 86.1695 56.6333 86.1695H61.6367C62.7635 86.1695 63.6776 85.2563 63.6776 84.1286V72.9722L67.4526 74.5453V95.9092ZM75.9288 95.9092H71.5335V76.2452L72.6024 76.6907C74.4991 77.4804 75.9288 79.8112 75.9288 82.1107V95.9092Z" fill="black"/>
<path d="M97.9493 52.427H76.3192C75.1923 52.427 74.2783 53.3402 74.2783 54.4671V67.1151C74.2783 69.6275 76.3222 71.6706 78.8338 71.6706H82.3205V85.7552C82.3205 88.4561 84.5177 90.6533 87.2178 90.6533C89.9186 90.6533 92.1158 88.4561 92.1158 85.7552V71.6706H95.4346C97.9462 71.6706 99.9901 69.6275 99.9901 67.1151V54.4671C99.9901 53.3402 99.0761 52.427 97.9493 52.427ZM95.9092 56.508V58.5229H78.3593V56.508H95.9092ZM88.0341 85.756C88.0341 86.1985 87.6603 86.5724 87.2178 86.5724C86.776 86.5724 86.4022 86.1985 86.4022 85.756V71.6714H88.0341V85.756ZM95.4346 67.5897H78.8338C78.5767 67.5897 78.3593 67.3722 78.3593 67.1151V62.6046H95.9092V67.1151C95.9092 67.3722 95.6917 67.5897 95.4346 67.5897Z" fill="black"/>
<path d="M10.8154 0C4.85153 0 0 4.85153 0 10.8154V21.8513C0 22.9782 0.914002 23.8914 2.04086 23.8914H8.77457V29.6127C6.85883 30.4138 5.50995 32.3067 5.50995 34.5093V47.8157C5.50995 50.7416 7.88956 53.1212 10.8154 53.1212C13.7405 53.1212 16.1209 50.7416 16.1209 47.8157V34.5093C16.1209 32.3067 14.7713 30.4138 12.8555 29.6127V23.8914H19.59C20.7169 23.8914 21.6309 22.9782 21.6309 21.8513V10.8154C21.6309 4.85153 16.7786 0 10.8154 0V0ZM12.0399 47.8157C12.0399 48.4795 11.4792 49.0402 10.8154 49.0402C10.1517 49.0402 9.59091 48.4795 9.59091 47.8157V34.51C9.59091 33.8463 10.1517 33.2855 10.8154 33.2855C11.4792 33.2855 12.0399 33.8463 12.0399 34.51V47.8157ZM17.5491 19.8105H12.8555V16.7778C12.8555 15.6509 11.9423 14.7369 10.8154 14.7369C9.68857 14.7369 8.77457 15.6509 8.77457 16.7778V19.8105H4.08096V10.8154C4.08096 7.1022 7.1022 4.08096 10.8154 4.08096C14.5287 4.08096 17.5491 7.1022 17.5491 10.8154V19.8105Z" fill="black"/>
<path d="M57.174 94.8205H57.1473C56.0204 94.8205 55.1064 93.9072 55.1064 92.7804C55.1064 91.6535 56.0204 90.7395 57.1473 90.7395H57.174C58.3009 90.7395 59.2149 91.6535 59.2149 92.7804C59.2149 93.9072 58.3009 94.8205 57.174 94.8205Z" fill="black"/>
<path d="M50.5458 94.8205H42.8897C41.7628 94.8205 40.8496 93.9072 40.8496 92.7796C40.8496 91.6527 41.7628 90.7395 42.8897 90.7395H50.5458C51.6727 90.7395 52.5867 91.6527 52.5867 92.7796C52.5867 93.9072 51.6727 94.8205 50.5458 94.8205Z" fill="black"/>
</g>
<defs>
<clipPath id="clip0">
<rect width="100" height="100" fill="white"/>
</clipPath>
</defs>
</svg>
